# xmcd CD database file
#
# Track frame offsets:
#	150
#	24505
#	50533
#	66957
#	87541
#	117259
#	147212
#	163523
#	180220
#	197708
#
# Disc length: 2942 seconds
#
# Revision: 0
# Processed by: cddbd v1.5.2PL0 Copyright (c) Steve Scherf et al.
# Submitted via: CDex 1.70beta2
#
DISCID=840b7c0a
DTITLE=Deborah Coleman - Stop The Game
DYEAR=2007
DGENRE=Blues
TTITLE0=I Got To Know
TTITLE1=Stop The Game
TTITLE2=Motor City II
TTITLE3=Everlastin' Tears
TTITLE4=Greezy
TTITLE5=Changes
TTITLE6=Long Time
TTITLE7=Seven Days
TTITLE8=Zero
TTITLE9=Wagon Wheel
EXTD=YEAR: 2007
EXTT0=
EXTT1=
EXTT2=
EXTT3=
EXTT4=
EXTT5=
EXTT6=
EXTT7=
EXTT8=
EXTT9=
PLAYORDER=
